HIERARCHY
ROOT SpineBase
{
  OFFSET 0.000000 0.000000 0.000000
  CHANNELS 6 Xposition Yposition Zposition Zrotation Xrotation Yrotation
  JOINT SpineMid
  {
    OFFSET 0.000000 31.184070 0.000000
    CHANNELS 3 Zrotation Xrotation Yrotation
    JOINT SpineShoulder
    {
      OFFSET 0.204420 23.162077 -0.964036
      CHANNELS 3 Zrotation Xrotation Yrotation
      JOINT Neck
      {
        OFFSET 0.074424 7.664089 -0.660099
        CHANNELS 3 Zrotation Xrotation Yrotation
        JOINT Head
        {
          OFFSET -3.893747 12.818167 2.701031
          CHANNELS 3 Zrotation Xrotation Yrotation
          End Site
          {
            OFFSET 0 0 0
          }
        }
      }
      JOINT ShoulderLeft
      {
        OFFSET -16.411479 -4.425278 9.669890
        CHANNELS 3 Zrotation Xrotation Yrotation
        JOINT ElbowLeft
        {
          OFFSET -3.641358 -28.882249 3.599636
          CHANNELS 3 Zrotation Xrotation Yrotation
          JOINT WristLeft
          {
            OFFSET -0.396272 -22.722899 -1.477064
            CHANNELS 3 Zrotation Xrotation Yrotation
            JOINT HandLeft
            {
              OFFSET -0.340211 -7.981031 1.519338
              CHANNELS 3 Zrotation Xrotation Yrotation
              JOINT HandTipLeft
              {
                OFFSET 1.331031 -7.413587 0.258585
                CHANNELS 3 Zrotation Xrotation Yrotation
                End Site
                {
                  OFFSET 0 0 0
                }
              }
              JOINT ThumbLeft
              {
                OFFSET 2.266602 1.267915 -1.892698
                CHANNELS 3 Zrotation Xrotation Yrotation
                End Site
                {
                  OFFSET 0 0 0
                }
              }
            }
          }
        }
      }
      JOINT ShoulderRight
      {
        OFFSET 12.287578 -4.251775 -8.400132
        CHANNELS 3 Zrotation Xrotation Yrotation
        JOINT ElbowRight
        {
          OFFSET 5.988983 -23.096081 -4.663883
          CHANNELS 3 Zrotation Xrotation Yrotation
          JOINT WristRight
          {
            OFFSET -16.524426 -11.120838 -10.174633
            CHANNELS 3 Zrotation Xrotation Yrotation
            JOINT HandRight
            {
              OFFSET -3.492832 1.585107 -1.280631
              CHANNELS 3 Zrotation Xrotation Yrotation
              JOINT HandTipRight
              {
                OFFSET -6.402822 0.335263 -5.506717
                CHANNELS 3 Zrotation Xrotation Yrotation
                End Site
                {
                  OFFSET 0 0 0
                }
              }
              JOINT ThumbRight
              {
                OFFSET -3.543418 2.288144 -2.728996
                CHANNELS 3 Zrotation Xrotation Yrotation
                End Site
                {
                  OFFSET 0 0 0
                }
              }
            }
          }
        }
      }
    }
  }
  JOINT HipLeft
  {
    OFFSET -6.019783 0.060215 -0.287943
    CHANNELS 3 Zrotation Xrotation Yrotation
    JOINT KneeLeft
    {
      OFFSET 0.788861 -37.485461 4.487109
      CHANNELS 3 Zrotation Xrotation Yrotation
      JOINT AnkleLeft
      {
        OFFSET 7.776557 -37.982904 9.171614
        CHANNELS 3 Zrotation Xrotation Yrotation
        JOINT FootLeft
        {
          OFFSET -1.191474 -5.866917 -5.329996
          CHANNELS 3 Zrotation Xrotation Yrotation
          End Site
          {
            OFFSET 0 0 0
          }
        }
      }
    }
  }
  JOINT HipRight
  {
    OFFSET 6.540452 1.737909 -6.777154
    CHANNELS 3 Zrotation Xrotation Yrotation
    JOINT KneeRight
    {
      OFFSET 5.157049 -35.757716 -1.837898
      CHANNELS 3 Zrotation Xrotation Yrotation
      JOINT AnkleRight
      {
        OFFSET 4.888210 -38.591726 8.792682
        CHANNELS 3 Zrotation Xrotation Yrotation
        JOINT FootRight
        {
          OFFSET -4.612776 -2.198502 -10.676893
          CHANNELS 3 Zrotation Xrotation Yrotation
          End Site
          {
            OFFSET 0 0 0
          }
        }
      }
    }
  }
}
MOTION
Frames: 10
Frame Time: 0.033333
-23.729580 87.289953 339.728061 0.437303 1.926737 26.478734 1.054374 0.556463 -26.461576 -0.008424 0.190037 0.043346 -6.807875 5.338557 3.775533 0.000000 0.000000 0.000000 -8.345066 14.412340 -2.534592 -25.157059 44.141946 14.278784 -7.450406 36.119268 -9.071078 3.816412 -19.552239 27.940401 0.000000 0.000000 0.000000 0.000000 0.000000 0.000000 -22.892217 23.950160 15.581278 -35.345686 10.020074 -9.383383 43.082981 -21.685903 9.704284 -22.847750 21.366850 11.111998 0.000000 0.000000 0.000000 0.000000 0.000000 0.000000 -1.146577 1.962761 -26.612225 2.866774 -4.345394 0.333761 -2.046144 -4.307000 1.688399 0.000000 0.000000 0.000000 -1.133505 2.131354 -25.944368 2.021256 -5.660375 -0.642869 16.500098 -29.591146 15.326081 0.000000 0.000000 0.000000
-24.031045 87.192251 339.796316 0.701118 1.699951 25.795062 0.955363 0.161243 -25.756372 -0.050797 0.008474 0.058948 -7.297086 5.729052 3.717846 0.000000 0.000000 0.000000 -12.216288 17.932143 -2.590746 -27.689498 44.950045 17.660861 -7.900784 39.285635 -9.267351 3.248429 -18.862127 32.411696 0.000000 0.000000 0.000000 0.000000 0.000000 0.000000 -22.528399 23.052018 14.794012 -33.439765 7.900415 -7.938372 43.134791 -21.713641 5.689982 -28.155785 19.310819 22.539907 0.000000 0.000000 0.000000 0.000000 0.000000 0.000000 -1.384514 2.556440 -25.947584 3.842080 -4.264060 0.663061 -4.391453 -3.940116 2.708888 0.000000 0.000000 0.000000 -1.574194 3.857423 -25.043915 2.987361 -7.265262 -0.805066 28.616471 -41.565834 24.836913 0.000000 0.000000 0.000000
-24.296381 87.100200 339.770363 1.192816 1.128331 24.622002 0.895545 -0.114814 -24.553916 -0.061556 -0.107114 0.087220 -7.527334 5.523791 3.267217 0.000000 0.000000 0.000000 -16.160358 22.955903 -2.356703 -33.201130 46.798384 22.534016 -5.684004 36.434083 -9.996496 -1.819006 -14.561679 34.839428 0.000000 0.000000 0.000000 0.000000 0.000000 0.000000 -21.958439 22.092834 13.764555 -32.121195 7.745740 -6.717918 40.514847 -21.197119 3.152218 -26.957501 17.043975 26.465832 0.000000 0.000000 0.000000 0.000000 0.000000 0.000000 -2.022503 3.467314 -24.807654 5.083101 -3.612721 1.097734 -7.514108 -4.041898 4.274768 0.000000 0.000000 0.000000 -2.423332 6.510630 -23.530033 3.915730 -8.511235 -1.064015 33.401900 -46.126916 25.834962 0.000000 0.000000 0.000000
-24.411296 87.024575 339.812842 1.868392 0.208117 23.187977 0.775916 -0.398463 -23.073370 -0.092000 -0.231475 0.121378 -7.935511 6.194751 3.041253 0.000000 0.000000 0.000000 -21.348329 30.041488 -1.383306 -35.986286 45.341713 25.038429 -4.660047 36.076370 -10.260391 -4.441679 -13.587230 37.841043 0.000000 0.000000 0.000000 0.000000 0.000000 0.000000 -21.291139 21.851574 12.921290 -31.390810 8.117216 -5.885335 38.155857 -20.856091 1.285343 -26.620731 15.821978 29.625858 0.000000 0.000000 0.000000 0.000000 0.000000 0.000000 -3.131798 4.330164 -23.389668 6.389915 -2.163868 1.530743 -11.993635 -9.302833 7.893525 0.000000 0.000000 0.000000 -3.808731 9.952123 -21.571201 4.920325 -9.215831 -1.370470 30.490210 -45.176069 20.567601 0.000000 0.000000 0.000000
-25.032805 86.740401 339.415717 2.365655 -1.136351 21.426038 0.687084 -0.495067 -21.258916 -0.123567 -0.271028 0.143532 -7.913572 6.794268 2.721275 0.000000 0.000000 0.000000 -27.877771 38.322113 0.948179 -36.780082 42.080834 25.693380 -3.802956 35.901542 -10.232557 -7.208544 -15.187033 36.293543 0.000000 0.000000 0.000000 0.000000 0.000000 0.000000 -19.261918 21.245698 11.444376 -31.250436 9.867258 -5.176925 36.018372 -20.479087 2.100355 -23.907035 14.870002 28.374892 0.000000 0.000000 0.000000 0.000000 0.000000 0.000000 -3.329662 5.520640 -21.542964 6.532658 0.255003 1.952979 -15.164264 -9.718645 8.998877 0.000000 0.000000 0.000000 -4.806122 13.545022 -19.183857 4.580774 -8.196703 -1.819297 21.293648 -37.183642 8.925346 0.000000 0.000000 0.000000
-25.961850 86.257014 338.571210 2.727033 -2.587915 19.308051 0.617067 -0.459620 -19.086250 -0.164987 -0.260070 0.155939 -7.499153 7.025620 2.235943 0.000000 0.000000 0.000000 -36.425639 48.011668 5.645264 -35.461953 38.439388 25.195752 -2.228810 30.152375 -14.393526 -7.243623 -12.965591 42.643979 0.000000 0.000000 0.000000 0.000000 0.000000 0.000000 -16.026894 19.786306 9.232541 -29.462978 11.337691 -5.003847 26.957152 -18.577899 -0.820576 -16.996250 11.891549 29.759943 0.000000 0.000000 0.000000 0.000000 0.000000 0.000000 -3.270323 6.807198 -19.312255 6.861109 1.143384 2.203589 -17.372720 -4.539108 8.938200 0.000000 0.000000 0.000000 -5.705438 17.066507 -16.355214 3.338394 -6.217618 -2.359530 19.023549 -33.367193 5.148925 0.000000 0.000000 0.000000
-27.099168 85.658778 337.496893 2.836919 -3.978320 17.316818 0.571653 -0.314672 -17.054965 -0.204225 -0.193336 0.154708 -6.688359 6.878441 1.640453 0.000000 0.000000 0.000000 -48.337750 55.274740 13.453124 -32.586237 35.188426 25.918491 -0.569045 24.465409 -17.369415 -8.796357 -9.677799 48.044135 0.000000 0.000000 0.000000 0.000000 0.000000 0.000000 -13.109862 17.614491 7.110173 -29.335636 14.587928 -4.306342 25.512147 -20.779596 -4.879447 -15.237999 12.218280 30.084833 0.000000 0.000000 0.000000 0.000000 0.000000 0.000000 -2.249261 9.035869 -17.223914 6.989124 -1.083900 2.237948 -17.878559 4.815156 7.967062 0.000000 0.000000 0.000000 -6.103256 20.023824 -13.756682 1.252923 -3.298398 -2.848350 18.819526 -31.625494 5.073628 0.000000 0.000000 0.000000
-28.533590 84.744402 335.503927 2.897779 -5.200849 15.246134 0.432095 0.027869 -14.954825 -0.306558 -0.048065 0.139547 -6.307290 6.325315 1.229554 0.000000 0.000000 0.000000 -58.004235 58.369045 20.409120 -30.645012 33.379856 27.404258 -0.504344 19.357907 -22.359441 -7.978311 -8.284289 52.228287 0.000000 0.000000 0.000000 0.000000 0.000000 0.000000 -9.571943 14.554572 4.717265 -29.163199 18.546649 -4.161073 26.318577 -23.432003 -4.832966 -13.265394 12.600223 26.970119 0.000000 0.000000 0.000000 0.000000 0.000000 0.000000 -1.302151 10.283749 -15.093338 6.672870 -3.234105 2.023743 -15.552186 13.257194 5.119250 0.000000 0.000000 0.000000 -6.566037 22.270631 -11.171551 -0.713352 -0.552827 -3.177915 19.556939 -31.611265 6.635379 0.000000 0.000000 0.000000
-29.990091 83.663311 332.882407 3.080343 -6.113282 13.266717 0.402040 0.208344 -12.935871 -0.244858 -0.043621 0.149232 -7.559853 5.851237 1.212823 0.000000 0.000000 0.000000 -67.981046 60.138308 27.542158 -28.520785 30.885181 28.106428 -0.296594 16.166544 -24.479451 -7.663264 -8.515100 50.738318 0.000000 0.000000 0.000000 0.000000 0.000000 0.000000 -6.696907 11.447363 2.518134 -28.201049 21.891971 -4.627132 25.215971 -24.425354 -2.705502 -10.577338 12.462699 21.616535 0.000000 0.000000 0.000000 0.000000 0.000000 0.000000 -0.514155 11.286609 -13.078352 6.240129 -6.444143 1.645811 -12.802120 24.401753 1.699463 0.000000 0.000000 0.000000 -7.453421 23.894026 -8.688292 -2.006408 1.232823 -3.403255 19.748691 -30.894109 5.270687 0.000000 0.000000 0.000000
-31.263307 82.600245 330.065988 3.283156 -6.794647 11.536250 0.435081 0.085841 -11.159349 -0.199859 -0.004798 0.163093 -9.316822 6.005165 1.540872 0.000000 0.000000 0.000000 -74.460940 59.881223 31.668580 -26.498917 30.603756 30.563939 -2.129749 9.138258 -31.540011 -6.692320 -7.038977 50.031632 0.000000 0.000000 0.000000 0.000000 0.000000 0.000000 -3.074971 7.822795 0.019031 -28.446538 24.519725 -4.202469 23.034840 -25.185775 -3.214997 -7.637136 12.066326 17.580322 0.000000 0.000000 0.000000 0.000000 0.000000 0.000000 -0.677592 11.353490 -11.283109 6.347626 -8.934019 1.246107 -8.782611 34.040619 -2.962758 0.000000 0.000000 0.000000 -8.474292 24.988349 -6.498468 -2.569289 1.729278 -3.603967 20.133961 -30.774294 5.652135 0.000000 0.000000 0.000000
